<svg width="40" height="40" viewBox="0 0 40 40" fill="none" xmlns="http://www.w3.org/2000/svg">
<g filter="url(#filter0_i_6886_12595)">
<path d="M0 20C0 8.95431 8.95431 0 20 0C31.0457 0 40 8.95431 40 20C40 31.0457 31.0457 40 20 40C8.95431 40 0 31.0457 0 20Z" fill="white" fill-opacity="0.01"/>
<path d="M20 0.78125C30.6144 0.78125 39.2188 9.3856 39.2188 20C39.2188 30.6144 30.6144 39.2188 20 39.2188C9.3856 39.2188 0.78125 30.6144 0.78125 20C0.78125 9.3856 9.3856 0.78125 20 0.78125Z" stroke="url(#paint0_linear_6886_12595)" stroke-opacity="0.4" stroke-width="1.56186"/>
<path d="M14.8965 14.8945L25.1095 25.1075" stroke="black" stroke-width="0.820741" stroke-linecap="round" stroke-linejoin="round"/>
<path d="M14.8944 25.1075L25.1074 14.8945" stroke="black" stroke-width="0.820741" stroke-linecap="round" stroke-linejoin="round"/>
</g>
<defs>
<filter id="filter0_i_6886_12595" x="0" y="0" width="40" height="40" filterUnits="userSpaceOnUse" color-interpolation-filters="sRGB">
<feFlood flood-opacity="0" result="BackgroundImageFix"/>
<feBlend mode="normal" in="SourceGraphic" in2="BackgroundImageFix" result="shape"/>
<feColorMatrix in="SourceAlpha" type="matrix" values="0 0 0 0 0 0 0 0 0 0 0 0 0 0 0 0 0 0 127 0" result="hardAlpha"/>
<feMorphology radius="10.9331" operator="dilate" in="SourceAlpha" result="effect1_innerShadow_6886_12595"/>
<feOffset/>
<feGaussianBlur stdDeviation="10.9331"/>
<feComposite in2="hardAlpha" operator="arithmetic" k2="-1" k3="1"/>
<feColorMatrix type="matrix" values="0 0 0 0 1 0 0 0 0 1 0 0 0 0 1 0 0 0 0.3 0"/>
<feBlend mode="normal" in2="shape" result="effect1_innerShadow_6886_12595"/>
</filter>
<linearGradient id="paint0_linear_6886_12595" x1="-8.29588" y1="-6.46597" x2="21.9094" y2="22.8574" gradientUnits="userSpaceOnUse">
<stop stop-color="white"/>
<stop offset="1" stop-color="white" stop-opacity="0"/>
</linearGradient>
</defs>
</svg>
