<svg width="52" height="52" viewBox="0 0 52 52" fill="none" xmlns="http://www.w3.org/2000/svg">
<g filter="url(#filter0_i_195_2515)">
<path d="M0 25.7139C0 11.5125 11.5125 0 25.7139 0V0C39.9152 0 51.4277 11.5125 51.4277 25.7139V25.7139C51.4277 39.9152 39.9152 51.4277 25.7139 51.4277V51.4277C11.5125 51.4277 0 39.9152 0 25.7139V25.7139Z" fill="white" fill-opacity="0.01"/>
<path d="M25.7139 0.951172C39.3897 0.951172 50.4766 12.038 50.4766 25.7139C50.4766 39.3897 39.3897 50.4766 25.7139 50.4766C12.038 50.4766 0.951172 39.3897 0.951172 25.7139C0.951172 12.038 12.038 0.951172 25.7139 0.951172Z" stroke="url(#paint0_linear_195_2515)" stroke-opacity="0.4" stroke-width="1.90299"/>
<g opacity="0.8">
<path d="M21.1092 20.0275L29.6079 17.1946C33.4218 15.9233 35.4939 18.0055 34.2326 21.8194L31.3997 30.3181C29.4978 36.034 26.3746 36.034 24.4726 30.3181L23.6317 27.7955L21.1092 26.9546C15.3933 25.0527 15.3933 21.9395 21.1092 20.0275Z" stroke="black" stroke-opacity="0.8" stroke-width="1.50154" stroke-linecap="round" stroke-linejoin="round"/>
<path d="M23.8223 27.3652L27.4059 23.7715" stroke="black" stroke-opacity="0.8" stroke-width="1.50154" stroke-linecap="round" stroke-linejoin="round"/>
</g>
</g>
<defs>
<filter id="filter0_i_195_2515" x="0" y="0" width="51.4277" height="51.4277" filterUnits="userSpaceOnUse" color-interpolation-filters="sRGB">
<feFlood flood-opacity="0" result="BackgroundImageFix"/>
<feBlend mode="normal" in="SourceGraphic" in2="BackgroundImageFix" result="shape"/>
<feColorMatrix in="SourceAlpha" type="matrix" values="0 0 0 0 0 0 0 0 0 0 0 0 0 0 0 0 0 0 127 0" result="hardAlpha"/>
<feMorphology radius="13.321" operator="dilate" in="SourceAlpha" result="effect1_innerShadow_195_2515"/>
<feOffset/>
<feGaussianBlur stdDeviation="13.321"/>
<feComposite in2="hardAlpha" operator="arithmetic" k2="-1" k3="1"/>
<feColorMatrix type="matrix" values="0 0 0 0 1 0 0 0 0 1 0 0 0 0 1 0 0 0 0.1 0"/>
<feBlend mode="normal" in2="shape" result="effect1_innerShadow_195_2515"/>
</filter>
<linearGradient id="paint0_linear_195_2515" x1="-10.666" y1="-8.31326" x2="28.1688" y2="29.3876" gradientUnits="userSpaceOnUse">
<stop stop-color="white"/>
<stop offset="1" stop-color="white" stop-opacity="0"/>
</linearGradient>
</defs>
</svg>
