<svg width="24" height="25" viewBox="0 0 24 25" fill="none" xmlns="http://www.w3.org/2000/svg">
<path d="M8 2.44727V5.44727" stroke="#409C49" stroke-width="1.5" stroke-miterlimit="10" stroke-linecap="round" stroke-linejoin="round"/>
<path d="M16 2.44727V5.44727" stroke="#409C49" stroke-width="1.5" stroke-miterlimit="10" stroke-linecap="round" stroke-linejoin="round"/>
<path d="M3.5 9.53711H20.5" stroke="#409C49" stroke-width="1.5" stroke-miterlimit="10" stroke-linecap="round" stroke-linejoin="round"/>
<path d="M22 19.4473C22 20.1973 21.79 20.9073 21.42 21.5073C20.73 22.6673 19.46 23.4473 18 23.4473C16.99 23.4473 16.07 23.0773 15.37 22.4473C15.06 22.1873 14.79 21.8673 14.58 21.5073C14.21 20.9073 14 20.1973 14 19.4473C14 17.2373 15.79 15.4473 18 15.4473C19.2 15.4473 20.27 15.9773 21 16.8073C21.62 17.5173 22 18.4373 22 19.4473Z" stroke="#409C49" stroke-width="1.5" stroke-miterlimit="10" stroke-linecap="round" stroke-linejoin="round"/>
<path d="M16.4404 19.4473L17.4304 20.4373L19.5604 18.4673" stroke="#409C49" stroke-width="1.5" stroke-linecap="round" stroke-linejoin="round"/>
<path d="M21 8.94727V16.8073C20.27 15.9773 19.2 15.4473 18 15.4473C15.79 15.4473 14 17.2373 14 19.4473C14 20.1973 14.21 20.9073 14.58 21.5073C14.79 21.8673 15.06 22.1873 15.37 22.4473H8C4.5 22.4473 3 20.4473 3 17.4473V8.94727C3 5.94727 4.5 3.94727 8 3.94727H16C19.5 3.94727 21 5.94727 21 8.94727Z" stroke="#409C49" stroke-width="1.5" stroke-miterlimit="10" stroke-linecap="round" stroke-linejoin="round"/>
<path d="M11.9955 14.1475H12.0045" stroke="#409C49" stroke-width="2" stroke-linecap="round" stroke-linejoin="round"/>
<path d="M8.29431 14.1475H8.30329" stroke="#409C49" stroke-width="2" stroke-linecap="round" stroke-linejoin="round"/>
<path d="M8.29431 17.1475H8.30329" stroke="#409C49" stroke-width="2" stroke-linecap="round" stroke-linejoin="round"/>
</svg>
